<svg width="49" height="28" viewBox="0 0 49 28" fill="none" xmlns="http://www.w3.org/2000/svg">
<g id="formkit:arrowright">
<path id="Vector" d="M37.8782 15.5556H10.9426C10.1046 15.5556 9.44617 14.8711 9.44617 14C9.44617 13.1289 10.1046 12.4444 10.9426 12.4444H37.8782C38.7162 12.4444 39.3746 13.1289 39.3746 14C39.3746 14.8711 38.7162 15.5556 37.8782 15.5556Z" fill="currentColor"/>
<path id="Vector_2" d="M30.3961 26.4444C30.1998 26.4469 30.0052 26.4067 29.8248 26.3263C29.6444 26.246 29.4822 26.1272 29.3486 25.9778C28.75 25.3556 28.75 24.3911 29.3486 23.7689L38.7761 13.9689L29.3486 4.16889C28.75 3.54667 28.75 2.58222 29.3486 1.96C29.9472 1.33778 30.8749 1.33778 31.4735 1.96L41.9485 12.8489C42.547 13.4711 42.547 14.4356 41.9485 15.0578L31.4735 25.9467C31.1742 26.2578 30.7852 26.4133 30.426 26.4133L30.3961 26.4444Z" fill="currentColor"/>
</g>
</svg>
