<svg width="47" height="21" viewBox="0 0 47 21" fill="none" xmlns="http://www.w3.org/2000/svg">
<g id="logos:flux">
<g clip-path="url(#clip0_123_558)">
<path id="Vector" d="M37.6428 6.16536e-06C35.8672 -0.00215703 34.1281 0.564959 32.6305 1.63451L23.4998 9.15456L18.6871 5.19133C18.397 5.71921 18.1051 6.2438 17.8257 6.78692C17.7583 6.91765 17.6959 7.05004 17.6296 7.18056L21.6523 10.4932L13.211 17.4442C12.0549 18.253 10.7194 18.6814 9.35667 18.6805C5.3312 18.6805 2.0557 15.0078 2.0557 10.4932C2.0557 5.97842 5.33065 2.30589 9.35667 2.30589C10.7194 2.30464 12.055 2.73297 13.211 3.54201L14.0501 4.23254C14.3969 3.56054 14.7562 2.90418 15.1189 2.25256L14.369 1.63492C12.8714 0.565178 11.1322 -0.00182359 9.35667 0.000829695C4.18943 0.000623812 0 4.69865 0 10.4932C0 16.2878 4.18888 20.9856 9.35667 20.9856C11.1322 20.9879 12.8713 20.4209 14.369 19.3513L23.5 11.8317L28.3313 15.8103C28.6272 15.2666 28.9224 14.721 29.2145 14.1526C29.2724 14.0399 29.3247 13.9282 29.3818 13.8153L25.3479 10.4932L33.7886 3.54201C34.9448 2.73338 36.2803 2.30509 37.643 2.30589C41.669 2.30589 44.9439 5.97842 44.9439 10.4932C44.9439 15.0078 41.669 18.6805 37.643 18.6805C36.2802 18.6817 34.9447 18.2533 33.7886 17.4442L32.9617 16.7634C32.6161 17.4308 32.2624 18.0928 31.9005 18.7493L32.6312 19.3505C34.1287 20.4204 35.8679 20.9876 37.6435 20.9852C42.8108 20.9852 47.0002 16.2869 47.0002 10.4926C46.9995 4.69804 42.8106 6.16536e-06 37.6428 6.16536e-06Z" fill="currentColor"/>
</g>
</g>
<defs>
<clipPath id="clip0_123_558">
<rect width="47" height="21" fill="white"/>
</clipPath>
</defs>
</svg>
