<svg width="42" height="40" viewBox="0 0 42 40" fill="none" xmlns="http://www.w3.org/2000/svg">
<g id="pepicons-pop:pen">
<g id="Group">
<path id="Vector" fill-rule="evenodd" clip-rule="evenodd" d="M27.7158 2.44L6.55203 22.596C6.23565 22.8966 6.0282 23.2854 5.95983 23.706L4.47933 32.894C4.42938 33.2043 4.45683 33.5215 4.55947 33.8198C4.66211 34.1182 4.83706 34.3893 5.07015 34.6113C5.30325 34.8333 5.58795 34.9999 5.90121 35.0977C6.21447 35.1954 6.54749 35.2216 6.87333 35.174L16.5228 33.764C16.9642 33.6994 17.3725 33.5026 17.6883 33.202L38.8521 13.046C39.2458 12.6709 39.467 12.1623 39.467 11.632C39.467 11.1017 39.2458 10.5931 38.8521 10.218L30.6831 2.438C30.2894 2.06367 29.7558 1.85342 29.1995 1.85342C28.6432 1.85342 28.1096 2.06367 27.7158 2.438V2.44ZM9.06573 30.808L10.0065 24.96L29.2005 6.68L34.398 11.632L15.204 29.912L9.06573 30.808Z" fill="currentColor"/>
<path id="Vector_2" d="M24.0283 10.494L26.2543 8.37199L33.0625 14.852L30.8344 16.974L24.0283 10.494Z" fill="currentColor"/>
</g>
</g>
</svg>
