<svg width="40" height="40" viewBox="0 0 40 40" fill="none" xmlns="http://www.w3.org/2000/svg">
<g id="tdesign:app">
<path id="Vector" d="M3.33331 4.01283H18.3333V18.4359H3.33331V4.01283ZM6.66665 7.21795V15.2308H15V7.21795H6.66665ZM29.1666 7.21795C28.0616 7.21795 27.0018 7.64006 26.2204 8.3914C25.439 9.14275 25 10.1618 25 11.2244C25 12.2869 25.439 13.306 26.2204 14.0573C27.0018 14.8087 28.0616 15.2308 29.1666 15.2308C30.2717 15.2308 31.3315 14.8087 32.1129 14.0573C32.8943 13.306 33.3333 12.2869 33.3333 11.2244C33.3333 10.1618 32.8943 9.14275 32.1129 8.3914C31.3315 7.64006 30.2717 7.21795 29.1666 7.21795ZM21.6666 11.2244C21.6666 10.2773 21.8606 9.33957 22.2376 8.46463C22.6145 7.58968 23.1669 6.79469 23.8633 6.12504C24.5598 5.45538 25.3866 4.92418 26.2965 4.56177C27.2065 4.19936 28.1817 4.01283 29.1666 4.01283C30.1516 4.01283 31.1268 4.19936 32.0368 4.56177C32.9467 4.92418 33.7735 5.45538 34.4699 6.12504C35.1664 6.79469 35.7188 7.58968 36.0957 8.46463C36.4727 9.33957 36.6666 10.2773 36.6666 11.2244C36.6666 13.137 35.8765 14.9713 34.4699 16.3237C33.0634 17.6761 31.1558 18.4359 29.1666 18.4359C27.1775 18.4359 25.2699 17.6761 23.8633 16.3237C22.4568 14.9713 21.6666 13.137 21.6666 11.2244ZM3.33331 21.641H18.3333V36.0641H3.33331V21.641ZM6.66665 24.8462V32.859H15V24.8462H6.66665ZM21.6666 21.641H36.6666V36.0641H21.6666V21.641ZM25 24.8462V32.859H33.3333V24.8462H25Z" fill="currentColor"/>
</g>
</svg>
